<?xml version="1.0" encoding="UTF-8" standalone="no"?>
<!-- Created with Inkscape (http://www.inkscape.org/) -->

<svg
   width="100mm"
   height="100mm"
   viewBox="0 0 100 100"
   version="1.1"
   id="svg5"
   inkscape:version="1.2.2 (732a01da63, 2022-12-09)"
   sodipodi:docname="pat-self-otb2.svg"
   xmlns:inkscape="http://www.inkscape.org/namespaces/inkscape"
   xmlns:sodipodi="http://sodipodi.sourceforge.net/DTD/sodipodi-0.dtd"
   xmlns="http://www.w3.org/2000/svg"
   xmlns:svg="http://www.w3.org/2000/svg">
  <sodipodi:namedview
     id="namedview7"
     pagecolor="#ffffff"
     bordercolor="#cccccc"
     borderopacity="1"
     inkscape:showpageshadow="0"
     inkscape:pageopacity="1"
     inkscape:pagecheckerboard="0"
     inkscape:deskcolor="#d1d1d1"
     inkscape:document-units="mm"
     showgrid="false"
     inkscape:zoom="0.70710678"
     inkscape:cx="323.1478"
     inkscape:cy="319.61227"
     inkscape:window-width="1920"
     inkscape:window-height="1009"
     inkscape:window-x="-8"
     inkscape:window-y="-8"
     inkscape:window-maximized="1"
     inkscape:current-layer="layer1" />
  <defs
     id="defs2" />
  <g
     inkscape:label="Layer 1"
     inkscape:groupmode="layer"
     id="layer1">
    <g
       id="rect234-4"
       transform="rotate(-45,-52.18924,7.1597678)">
      <path
         style="color:#000000;fill:#ffc500;stroke-width:2;stroke-linecap:round;stroke-miterlimit:3;stroke-dashoffset:21.4272;-inkscape-stroke:none"
         d="M 13.80327,68.14449 C 10.232281,64.573501 5.2931387,62.37032 -0.17941511,62.37032 l -20.09851189,3.65e-4 c -10.945107,0 -19.75649,8.811383 -19.75649,19.75649 v 56.176295 c 0,11.99522 7.561589,19.22134 19.75649,19.75649 l 13.0408366,0.57227 c 8.5670099,0.0634 16.3157611,-1.63165 22.3576554,-7.66337 l 27.109952,-27.10995 c 5.146846,-5.14685 5.735413,-12.84556 1.319486,-17.26149 -4.415923,-4.41592 -12.114641,-3.82736 -17.261487,1.31949 l -6.711075,6.71108 V 82.127175 c 0,-5.472553 -2.203181,-10.411696 -5.774171,-13.982685 z"
         id="path5055" />
      <path
         style="color:#000000;fill:#ffffff;stroke-linecap:round;stroke-miterlimit:3;stroke-dashoffset:21.4272;-inkscape-stroke:none"
         d="m -20.277344,61.371094 c -11.481797,0 -20.757812,9.274062 -20.757812,20.755859 v 56.175777 c 0,6.20774 1.982184,11.31182 5.603515,14.88868 3.621331,3.57686 8.824027,5.59136 15.109375,5.86718 l 13.0585941,0.57422 h 0.019531 c 8.7033576,0.0644 16.7921746,-1.68946 23.0703129,-7.95703 h 0.002 L 42.9375,124.56641 c 5.472453,-5.47246 6.178572,-13.81752 1.320312,-18.67578 -4.858256,-4.85826 -13.203327,-4.1541 -18.675781,1.31835 l -5.003906,5.00391 V 82.126953 c 0,-5.740939 -2.316787,-10.937881 -6.068359,-14.689453 -3.751572,-3.751572 -8.9485139,-6.066406 -14.6894535,-6.066406 z m 0,2 h 20.0976565 c 5.204157,0 9.8849915,2.090069 13.2753905,5.480468 3.3904,3.3904 5.482422,8.071235 5.482422,13.275391 v 34.916017 l 8.417969,-8.41992 c 4.821228,-4.82124 11.874075,-5.29194 15.847656,-1.31836 3.973586,3.97359 3.500917,11.02642 -1.320313,15.84765 l -27.109374,27.10938 c -5.8014831,5.79171 -13.203808,7.43101 -21.6269536,7.37109 l -13.0214844,-0.57226 c -5.90954,-0.25933 -10.584787,-2.12419 -13.792969,-5.29297 -3.208182,-3.16879 -5.007812,-7.67737 -5.007812,-13.46485 V 82.126953 c 0,-10.408395 8.349417,-18.755859 18.757812,-18.755859 z"
         id="path5057" />
    </g>
    <g
       id="path581"
       inkscape:transform-center-x="0.043563788"
       inkscape:transform-center-y="-2.0178702"
       transform="translate(-19.831399,-34.050137)">
      <path
         style="color:#000000;fill:#35c337;stroke-width:2.023;stroke-linecap:round;stroke-miterlimit:3;stroke-dashoffset:21.4272;-inkscape-stroke:none"
         d="M 90.405918,99.433186 C 88.038185,101.17714 79.85328,93.572692 76.912674,93.591843 73.972068,93.611013 65.886962,101.32143 63.496695,99.608502 61.106435,97.895545 65.809411,87.761359 64.88249,84.970597 63.955572,82.179834 54.124076,76.873095 55.014554,74.07049 c 0.890478,-2.802603 11.98196,-1.461448 14.349702,-3.20539 2.367741,-1.743947 4.376648,-12.734127 7.317256,-12.753283 2.940607,-0.01916 5.092546,10.943909 7.482806,12.656858 2.390264,1.712946 13.463336,0.227373 14.390271,3.018143 0.926909,2.790762 -8.834613,8.225154 -9.725092,11.027759 -0.890482,2.802602 3.944157,12.874662 1.576417,14.618611 z"
         id="path5061" />
      <path
         style="color:#000000;fill:#ffffff;stroke-linecap:round;stroke-miterlimit:3;stroke-dashoffset:21.4272;-inkscape-stroke:none"
         d="m 76.675781,57.099609 c -0.68221,0.0044 -1.272999,0.330029 -1.730469,0.740235 -0.457469,0.410206 -0.830802,0.923592 -1.18164,1.505859 -0.701676,1.164535 -1.307976,2.628671 -1.896485,4.126953 -0.588508,1.498283 -1.153262,3.027872 -1.699218,4.25586 -0.545957,1.227987 -1.165829,2.146623 -1.404297,2.322265 -0.238469,0.175643 -1.298152,0.495173 -2.632813,0.652344 -1.33466,0.157171 -2.964899,0.241736 -4.570312,0.359375 -1.605414,0.117639 -3.181704,0.263188 -4.501953,0.587891 -0.660125,0.162351 -1.259677,0.366422 -1.78711,0.68164 -0.527432,0.315218 -1.014115,0.781447 -1.220703,1.431641 -0.206587,0.650194 -0.07884,1.313159 0.169922,1.875 0.248763,0.56184 0.621052,1.074293 1.066406,1.58789 0.890709,1.027195 2.094799,2.057379 3.337891,3.080079 1.243092,1.022699 2.524262,2.030982 3.523437,2.929687 0.999176,0.898705 1.680083,1.771662 1.773438,2.052734 0.09336,0.281073 0.06959,1.389126 -0.193359,2.707032 -0.262955,1.317905 -0.686094,2.893839 -1.070313,4.457031 -0.384219,1.563192 -0.732862,3.108872 -0.832031,4.464844 -0.04959,0.677986 -0.0411,1.311129 0.0957,1.910156 0.136804,0.599027 0.431797,1.206115 0.986328,1.603515 0.554534,0.39739 1.222771,0.48094 1.833984,0.41797 0.611214,-0.063 1.213762,-0.25859 1.839844,-0.52344 1.252164,-0.529693 2.604156,-1.358389 3.960938,-2.224608 1.356781,-0.866218 2.711518,-1.772754 3.875,-2.445312 1.163481,-0.672558 2.205786,-1.050804 2.501953,-1.052734 0.296164,-0.0019 1.341524,0.362188 2.513672,1.019531 1.172147,0.657342 2.540248,1.548015 3.908203,2.396484 1.367955,0.848469 2.72932,1.656588 3.988281,2.169919 0.62948,0.25667 1.23372,0.445 1.845703,0.5 0.611983,0.055 1.280772,-0.0368 1.830078,-0.4414 0.549308,-0.404593 0.835857,-1.016432 0.964844,-1.617191 0.128987,-0.600758 0.128728,-1.232874 0.07031,-1.910156 -0.116831,-1.354564 -0.486068,-2.895071 -0.890625,-4.453125 -0.404557,-1.558053 -0.848801,-3.128991 -1.128907,-4.443359 -0.280105,-1.314369 -0.3182,-2.420862 -0.228515,-2.703125 0.08969,-0.282266 0.760665,-1.164524 1.748047,-2.076172 0.987381,-0.911648 2.254712,-1.937753 3.484375,-2.976563 1.229662,-1.03881 2.421577,-2.084334 3.298828,-3.123047 0.438625,-0.519356 0.803499,-1.036529 1.044922,-1.601562 0.241422,-0.565033 0.359571,-1.227552 0.144531,-1.875 -0.215045,-0.647446 -0.706785,-1.10965 -1.238281,-1.417969 -0.531497,-0.308319 -1.132737,-0.504467 -1.794922,-0.658203 -1.324371,-0.307473 -2.904907,-0.432587 -4.511719,-0.529297 -1.606812,-0.09671 -3.23567,-0.159062 -4.572266,-0.298828 C 86.059882,70.424687 84.994637,70.119786 84.7539,69.947266 84.513164,69.774745 83.880264,68.863348 83.318353,67.642578 82.756443,66.421809 82.174381,64.89869 81.5664,63.408203 80.95842,61.917716 80.332018,60.461934 79.615228,59.306641 79.256833,58.728994 78.876832,58.22257 78.414056,57.818359 c -0.462775,-0.40421 -1.05607,-0.723195 -1.738281,-0.71875 z m 0.01172,2.023438 c 0.05294,-3.45e-4 0.169389,0.02039 0.396484,0.21875 0.227095,0.198356 0.518281,0.557039 0.8125,1.03125 0.588439,0.948421 1.200514,2.336827 1.796875,3.798828 0.596362,1.462001 1.181378,3.000435 1.78711,4.316406 0.605731,1.315972 1.139358,2.419563 2.09375,3.103516 0.954394,0.683952 2.170497,0.833709 3.611328,0.984375 1.440831,0.150666 3.086006,0.211779 4.662109,0.30664 1.576103,0.09486 3.086604,0.228054 4.173828,0.480469 0.543612,0.126208 0.977462,0.2862 1.238282,0.4375 0.260819,0.151301 0.317295,0.254442 0.333984,0.304688 0.01669,0.05024 0.03449,0.166083 -0.08398,0.443359 -0.118473,0.277276 -0.370386,0.665438 -0.730469,1.091797 -0.720167,0.852717 -1.852432,1.863856 -3.058594,2.882812 -1.206162,1.018957 -2.488351,2.052414 -3.552734,3.035157 -1.064383,0.982743 -1.947181,1.830183 -2.302735,2.949218 -0.355556,1.119037 -0.124214,2.321411 0.177735,3.738282 0.301949,1.41687 0.753566,3.00102 1.15039,4.529297 0.396825,1.528277 0.736122,3.007129 0.832032,4.11914 0.04796,0.556006 0.03009,1.017693 -0.0332,1.3125 -0.0633,0.294807 -0.142919,0.380713 -0.185546,0.41211 -0.04263,0.0314 -0.148905,0.08168 -0.449219,0.05469 -0.300314,-0.02699 -0.746909,-0.146715 -1.263672,-0.357422 -1.033526,-0.421414 -2.343736,-1.185325 -3.685547,-2.017578 -1.341811,-0.832253 -2.720818,-1.730848 -3.984375,-2.439453 -1.263557,-0.708605 -2.343441,-1.286944 -3.517578,-1.279297 -1.174135,0.0077 -2.245785,0.599212 -3.5,1.324219 -1.254215,0.725007 -2.622274,1.642523 -3.953125,2.492187 -1.330851,0.849664 -2.632209,1.631561 -3.660156,2.066407 -0.513974,0.217422 -0.957874,0.342145 -1.257813,0.373046 -0.299939,0.0309 -0.406186,-0.01799 -0.449219,-0.04883 -0.04303,-0.03084 -0.124272,-0.116198 -0.191406,-0.410156 -0.06713,-0.293958 -0.09149,-0.755917 -0.05078,-1.3125 0.08141,-1.113166 0.402421,-2.59559 0.779297,-4.128906 0.376876,-1.533317 0.806383,-3.122286 1.089844,-4.542969 0.283461,-1.420683 0.499011,-2.625927 0.128906,-3.740234 C 65.471693,83.538036 64.577096,82.701212 63.5,81.732422 c -1.077096,-0.968791 -2.370509,-1.985127 -3.589844,-2.988281 -1.219334,-1.003155 -2.364488,-2.00049 -3.095703,-2.84375 -0.365607,-0.421631 -0.622066,-0.80437 -0.744141,-1.080079 -0.122074,-0.275708 -0.107828,-0.392902 -0.0918,-0.443359 0.01603,-0.05046 0.07125,-0.153909 0.330078,-0.308594 0.258824,-0.154685 0.690502,-0.319845 1.232422,-0.453125 1.08384,-0.26656 2.593237,-0.419765 4.167968,-0.535156 1.574732,-0.11539 3.219459,-0.19776 4.658203,-0.367187 1.438745,-0.169428 2.652256,-0.336876 3.597657,-1.033204 0.945401,-0.696329 1.464201,-1.805153 2.052734,-3.128906 0.588533,-1.323752 1.155161,-2.870196 1.732422,-4.339844 0.577261,-1.469647 1.170063,-2.866257 1.746094,-3.822265 0.288015,-0.478004 0.574337,-0.839718 0.798828,-1.041016 0.224491,-0.201297 0.339637,-0.224264 0.392578,-0.224609 z"
         id="path5063" />
    </g>
  </g>
</svg>
