<?xml version="1.0" encoding="UTF-8" standalone="no"?>
<!-- Created with Inkscape (http://www.inkscape.org/) -->

<svg
   width="64"
   height="64"
   viewBox="0 0 16.933333 16.933333"
   version="1.1"
   id="svg853"
   inkscape:version="1.2.2 (732a01da63, 2022-12-09)"
   sodipodi:docname="trash.svg"
   xmlns:inkscape="http://www.inkscape.org/namespaces/inkscape"
   xmlns:sodipodi="http://sodipodi.sourceforge.net/DTD/sodipodi-0.dtd"
   xmlns="http://www.w3.org/2000/svg"
   xmlns:svg="http://www.w3.org/2000/svg">
  <sodipodi:namedview
     id="namedview855"
     pagecolor="#ffffff"
     bordercolor="#cccccc"
     borderopacity="1"
     inkscape:showpageshadow="0"
     inkscape:pageopacity="1"
     inkscape:pagecheckerboard="0"
     inkscape:deskcolor="#d1d1d1"
     inkscape:document-units="mm"
     showgrid="false"
     inkscape:zoom="5.403411"
     inkscape:cx="51.81912"
     inkscape:cy="54.225007"
     inkscape:window-width="1920"
     inkscape:window-height="1009"
     inkscape:window-x="-8"
     inkscape:window-y="-8"
     inkscape:window-maximized="1"
     inkscape:current-layer="layer1" />
  <defs
     id="defs850" />
  <g
     inkscape:label="Layer 1"
     inkscape:groupmode="layer"
     id="layer1">
    <path
       id="rect1389"
       style="color:#000000;fill:#e84c3b;stroke-width:1;stroke-linecap:round;stroke-miterlimit:3;stroke-dashoffset:21.4272;-inkscape-stroke:none"
       d="m 5.9752904,0.59617917 c -0.611973,0 -1.122386,0.51012043 -1.122386,1.12210013 V 3.5252277 H 1.6037504 A 0.56108309,0.56108309 0 0 0 1.0427017,4.0862811 0.56108309,0.56108309 0 0 0 1.6037504,4.6473305 H 2.2926667 L 3.4107048,15.649971 c 0.045215,0.444174 0.4537751,0.687183 0.8109838,0.687183 h 8.4711154 c 0.357249,0 0.765244,-0.242889 0.810984,-0.686019 L 14.640091,4.6473305 h 0.689496 A 0.56108309,0.56108309 0 0 0 15.890632,4.0862811 0.56108309,0.56108309 0 0 0 15.329587,3.5252277 H 12.080146 V 1.7182793 c 0,-0.6119797 -0.510127,-1.12210678 -1.1221,-1.12210013 z m 0,1.12210013 H 10.958046 V 3.5252277 H 5.9752904 Z M 3.4196945,4.6473305 h 2.5555959 4.9827556 2.554439 L 12.421118,15.214761 H 4.493661 Z m 2.6553406,2.1661986 a 0.56108309,0.56108309 0 0 0 -0.08003,0.00266 0.56108309,0.56108309 0 0 0 -0.4998674,0.6158493 l 0.5349554,5.1143896 a 0.56108309,0.56108309 0 0 0 0.6158495,0.499867 0.56108309,0.56108309 0 0 0 0.4995749,-0.617006 L 6.6117258,7.3160626 A 0.56108309,0.56108309 0 0 0 6.0750351,6.8135756 Z m 4.7722479,0 A 0.56108309,0.56108309 0 0 0 10.311457,7.3160094 L 9.7767946,12.429236 a 0.56108309,0.56108309 0 0 0 0.4995814,0.617006 0.56108309,0.56108309 0 0 0 0.617013,-0.499867 l 0.533792,-5.1143902 a 0.56108309,0.56108309 0 0 0 -0.499874,-0.6158426 0.56108309,0.56108309 0 0 0 -0.08002,-0.00266 z" />
  </g>
</svg>
