<?xml version="1.0" encoding="UTF-8" standalone="no"?>
<!-- Created with Inkscape (http://www.inkscape.org/) -->

<svg
   width="64.165367"
   height="61.252369"
   viewBox="0 0 64.165367 61.252369"
   version="1.1"
   id="svg5"
   inkscape:version="1.2.2 (732a01da63, 2022-12-09)"
   sodipodi:docname="blank-star.svg"
   xmlns:inkscape="http://www.inkscape.org/namespaces/inkscape"
   xmlns:sodipodi="http://sodipodi.sourceforge.net/DTD/sodipodi-0.dtd"
   xmlns="http://www.w3.org/2000/svg"
   xmlns:svg="http://www.w3.org/2000/svg">
  <sodipodi:namedview
     id="namedview7"
     pagecolor="#ffffff"
     bordercolor="#cccccc"
     borderopacity="1"
     inkscape:showpageshadow="0"
     inkscape:pageopacity="1"
     inkscape:pagecheckerboard="0"
     inkscape:deskcolor="#d1d1d1"
     inkscape:document-units="px"
     showgrid="false"
     inkscape:zoom="10.715575"
     inkscape:cx="25.663578"
     inkscape:cy="35.882349"
     inkscape:window-width="1409"
     inkscape:window-height="1032"
     inkscape:window-x="182"
     inkscape:window-y="0"
     inkscape:window-maximized="0"
     inkscape:current-layer="layer1" />
  <defs
     id="defs2" />
  <g
     inkscape:label="Layer 1"
     inkscape:groupmode="layer"
     id="layer1"
     transform="translate(0.08268514,-1.3738151)">
    <path
       style="color:#000000;fill:#717171;stroke-width:1;stroke-linecap:round;stroke-miterlimit:3;stroke-dashoffset:21.4272;-inkscape-stroke:none;fill-opacity:1"
       d="m 32.022111,1.3738154 c -1.332267,-5.145e-4 -2.310064,0.63209 -3.088993,1.3024348 -0.77893,0.6703448 -1.432231,1.4766849 -2.066554,2.3844853 -1.268648,1.8156007 -2.434166,4.0557561 -3.473763,6.2809505 -1.742993,3.730782 -2.638787,6.320315 -3.034798,7.417195 -1.166167,0.0368 -3.90498,0.08731 -7.991639,0.588895 -2.4377714,0.299205 -4.9294108,0.712762 -7.0486826,1.356628 -1.0596361,0.321933 -2.0296985,0.69178 -2.9083496,1.224758 -0.8786511,0.53298 -1.78082078,1.269324 -2.19300393,2.536225 -0.41218279,1.266902 -0.1150303,2.392132 0.2818028,3.340087 0.3968332,0.947954 0.96204573,1.818613 1.62939833,2.702416 1.3347053,1.767608 3.1076122,3.567724 4.9026463,5.244061 3.0095317,2.810525 5.1938937,4.463412 6.1147587,5.17903 -0.325448,1.120753 -1.123637,3.740733 -1.909394,7.782094 -0.468752,2.410916 -0.846225,4.908233 -0.888762,7.122745 -0.02127,1.107257 0.03198,2.142839 0.267351,3.143185 0.235376,1.000347 0.654842,2.086912 1.732364,2.870415 1.077523,0.783505 2.24003,0.848596 3.264217,0.764119 1.024186,-0.08448 2.02777,-0.353765 3.074541,-0.715345 2.093541,-0.723159 4.352348,-1.851057 6.501335,-3.040218 3.601887,-1.993138 5.847596,-3.560828 6.813846,-4.216204 0.96436,0.655211 3.212142,2.224943 6.813848,4.221622 2.148066,1.190825 4.406547,2.32086 6.499529,3.045639 1.046491,0.362388 2.048614,0.631883 3.072734,0.717151 1.024121,0.08526 2.186088,0.02216 3.264216,-0.760506 1.078131,-0.782669 1.498022,-1.87025 1.734172,-2.870415 0.236148,-1.000163 0.291376,-2.035913 0.270964,-3.143185 -0.04082,-2.214544 -0.416456,-4.711467 -0.883344,-7.122746 -0.782674,-4.042186 -1.579457,-6.663123 -1.903975,-7.7839 0.920876,-0.714473 3.107996,-2.366774 6.120179,-5.175417 1.796331,-1.674947 3.570186,-3.473873 4.90626,-5.240448 0.668035,-0.883288 1.233638,-1.752962 1.631204,-2.70061 0.397566,-0.947648 0.696618,-2.072867 0.285415,-3.340086 -0.411204,-1.26722 -1.314765,-2.002567 -2.193003,-2.536225 -0.87824,-0.533658 -1.847157,-0.905619 -2.906544,-1.228371 -2.118772,-0.645504 -4.609337,-1.060957 -7.046876,-1.362046 -4.086245,-0.504743 -6.825475,-0.556614 -7.991639,-0.594316 -0.395444,-1.09792 -1.289591,-3.68758 -3.02938,-7.419001 C 39.60632,9.1229296 38.443087,6.8809327 37.17585,5.0643483 36.542231,4.1560561 35.889496,3.3490109 35.111102,2.6780566 34.332709,2.0071023 33.354348,1.3744072 32.022111,1.3738154 Z m -0.0018,4.7581319 c 0.03274,0.024069 0.03151,0.013651 0.07226,0.048774 0.318067,0.2741638 0.793399,0.8184673 1.289791,1.5300447 0.992783,1.4231549 2.094953,3.499476 3.070928,5.592701 1.951949,4.186452 3.441245,8.425182 3.441245,8.425182 l 0.527478,1.510174 1.598688,0.03794 c 0,0 4.492977,0.109339 9.077303,0.675605 2.292162,0.283133 4.606621,0.690158 6.266499,1.195855 0.829939,0.252849 1.494558,0.538848 1.853395,0.756893 0.04552,0.02766 0.03587,0.02886 0.06865,0.05238 -0.01276,0.03853 -0.0045,0.03356 -0.02529,0.08309 -0.16244,0.387196 -0.531604,1.007868 -1.054954,1.699849 -1.046698,1.383961 -2.682359,3.072886 -4.371556,4.64794 -3.378393,3.150106 -6.949329,5.876311 -6.949329,5.876311 l -1.271726,0.970052 0.457027,1.531851 c 0,0 1.284211,4.305723 2.162294,8.84066 0.439041,2.267469 0.768264,4.594819 0.800248,6.329724 0.01599,0.867454 -0.05163,1.587451 -0.148128,1.996105 -0.01223,0.05178 -0.01667,0.04288 -0.0289,0.08129 -0.04053,-2.4e-4 -0.03329,0.0062 -0.08671,0.0018 -0.418441,-0.03484 -1.123881,-0.192996 -1.943717,-0.476897 -1.639671,-0.567801 -3.749778,-1.600678 -5.769731,-2.720481 -4.039908,-2.239605 -7.736934,-4.794261 -7.736934,-4.794261 l -1.315104,-0.910411 -1.31508,0.908634 c 0,0 -3.698904,2.552362 -7.740544,4.788842 -2.020821,1.118238 -4.133234,2.148527 -5.773346,2.71506 -0.820054,0.283268 -1.525247,0.442382 -1.943715,0.476898 -0.05342,0.0044 -0.04618,-0.002 -0.08671,-0.0018 -0.01221,-0.03842 -0.01672,-0.02951 -0.0289,-0.08129 -0.09617,-0.408728 -0.161177,-1.128664 -0.144514,-1.996103 0.03332,-1.734882 0.363065,-4.062597 0.80386,-6.329724 0.88159,-4.534258 2.167714,-8.838854 2.167714,-8.838854 L 18.40161,39.223932 17.131691,38.25388 c 0,0 -3.569762,-2.729013 -6.945717,-5.881729 C 8.4980286,30.795766 6.8636891,29.105341 5.8180619,27.720572 5.2952483,27.028187 4.9270547,26.406237 4.7649142,26.018916 c -0.020742,-0.04955 -0.012556,-0.04456 -0.02529,-0.08309 0.032798,-0.02351 0.023101,-0.02476 0.068645,-0.05238 0.3590049,-0.217769 1.0232612,-0.502881 1.8533953,-0.755087 1.6602684,-0.504415 3.9759255,-0.909077 6.2683075,-1.190437 4.58476,-0.562721 9.0773,-0.670184 9.0773,-0.670184 l 1.598689,-0.03613 0.529284,-1.508368 c 0,0 1.493286,-4.238409 3.44847,-8.423375 0.977594,-2.092483 2.078858,-4.168527 3.072736,-5.5908952 0.496939,-0.711184 0.975142,-1.2543444 1.293403,-1.5282383 0.04007,-0.034489 0.03811,-0.024975 0.07045,-0.048774 z"
       id="path234" />
  </g>
</svg>
